<svg width="24" height="24" viewBox="0 0 24 24" fill="none" xmlns="http://www.w3.org/2000/svg">
<path d="M15.7323 17.2359C15.9037 17.0667 16 16.8373 16 16.598C16 16.3588 15.9037 16.1294 15.7323 15.9602L11.2068 11.4946L15.7323 7.02889C15.8989 6.85874 15.991 6.63086 15.9889 6.39431C15.9868 6.15777 15.8907 5.9315 15.7212 5.76423C15.5517 5.59697 15.3224 5.50209 15.0827 5.50003C14.8429 5.49798 14.612 5.58891 14.4396 5.75325L9.26768 10.8567C9.09629 11.0259 9 11.2553 9 11.4946C9 11.7338 9.09629 11.9632 9.26768 12.1324L14.4396 17.2359C14.611 17.405 14.8435 17.5 15.0859 17.5C15.3284 17.5 15.5609 17.405 15.7323 17.2359Z" fill="black"/>
</svg>
