<svg width="24" height="24" viewBox="0 0 24 24" fill="none" xmlns="http://www.w3.org/2000/svg">
<path d="M9.26768 5.76414C9.09628 5.93332 9 6.16274 9 6.40196C9 6.64118 9.09628 6.87061 9.26768 7.03978L13.7932 11.5054L9.26768 15.9711C9.10114 16.1413 9.00899 16.3691 9.01107 16.6057C9.01316 16.8422 9.10931 17.0685 9.27882 17.2358C9.44832 17.403 9.67763 17.4979 9.91734 17.5C10.1571 17.502 10.388 17.4111 10.5604 17.2468L15.7323 12.1433C15.9037 11.9741 16 11.7447 16 11.5054C16 11.2662 15.9037 11.0368 15.7323 10.8676L10.5604 5.76414C10.389 5.59501 10.1565 5.5 9.91405 5.5C9.67163 5.5 9.43913 5.59501 9.26768 5.76414V5.76414Z" fill="white"/>
</svg>
